<?xml version="1.0" encoding="UTF-8" standalone="no"?>
<svg
   height="18pt"
   viewBox="-43 0 18 18"
   width="18pt"
   version="1.1"
   id="svg221"
   sodipodi:docname="bell.svg"
   inkscape:version="1.1 (c68e22c387, 2021-05-23)"
   xmlns:inkscape="http://www.inkscape.org/namespaces/inkscape"
   xmlns:sodipodi="http://sodipodi.sourceforge.net/DTD/sodipodi-0.dtd"
   xmlns="http://www.w3.org/2000/svg"
   xmlns:svg="http://www.w3.org/2000/svg">
  <defs
     id="defs225" />
  <sodipodi:namedview
     id="namedview223"
     pagecolor="#505050"
     bordercolor="#eeeeee"
     borderopacity="1"
     inkscape:pageshadow="0"
     inkscape:pageopacity="0"
     inkscape:pagecheckerboard="0"
     inkscape:document-units="pt"
     showgrid="false"
     width="18pt"
     inkscape:zoom="0.90321843"
     inkscape:cx="-71.411298"
     inkscape:cy="37.089589"
     inkscape:window-width="1920"
     inkscape:window-height="1057"
     inkscape:window-x="-8"
     inkscape:window-y="-8"
     inkscape:window-maximized="1"
     inkscape:current-layer="svg221" />
  <g
     id="g229"
     transform="matrix(0.04218737,0,0,0.03515625,-43,0)">
    <path
       d="m 413.41797,360.8125 c -32.25391,-27.26563 -50.75,-67.11719 -50.75,-109.33594 V 192 c 0,-75.07031 -55.76563,-137.214844 -128,-147.625 V 21.332031 C 234.66797,9.535156 225.10938,0 213.33203,0 201.55859,0 192,9.535156 192,21.332031 V 44.375 C 119.74219,54.785156 64,116.92969 64,192 v 59.47656 C 64,293.69531 45.503906,333.54687 13.054688,360.98047 4.757812,368.08594 0,378.41016 0,389.33203 c 0,20.58984 16.746094,37.33594 37.332031,37.33594 H 389.33203 c 20.58984,0 37.33594,-16.7461 37.33594,-37.33594 0,-10.92187 -4.75781,-21.24609 -13.25,-28.51953 z m 0,0"
       id="path217" />
    <path
       d="m 213.33203,512 c 38.63672,0 70.95703,-27.54297 78.37891,-64 H 134.95312 c 7.42579,36.45703 39.7461,64 78.37891,64 z m 0,0"
       id="path219" />
  </g>
</svg>
