<?xml version="1.0" encoding="UTF-8" standalone="no"?>
<svg
   height="18.000099"
   viewBox="0 0 13.500075 13.503432"
   width="18.000099"
   version="1.1"
   id="svg23"
   sodipodi:docname="close.svg"
   inkscape:version="1.1 (c68e22c387, 2021-05-23)"
   xmlns:inkscape="http://www.inkscape.org/namespaces/inkscape"
   xmlns:sodipodi="http://sodipodi.sourceforge.net/DTD/sodipodi-0.dtd"
   xmlns="http://www.w3.org/2000/svg"
   xmlns:svg="http://www.w3.org/2000/svg">
  <defs
     id="defs27" />
  <sodipodi:namedview
     id="namedview25"
     pagecolor="#505050"
     bordercolor="#eeeeee"
     borderopacity="1"
     inkscape:pageshadow="0"
     inkscape:pageopacity="0"
     inkscape:pagecheckerboard="0"
     inkscape:document-units="pt"
     showgrid="false"
     height="18.0001pt"
     units="px"
     inkscape:zoom="7.2407734"
     inkscape:cx="41.570145"
     inkscape:cy="44.677548"
     inkscape:window-width="1920"
     inkscape:window-height="1057"
     inkscape:window-x="-8"
     inkscape:window-y="-8"
     inkscape:window-maximized="1"
     inkscape:current-layer="svg23" />
  <g
     id="g111"
     transform="matrix(0.04340934,0,0,0.04340849,-0.00333654,2.693806e-7)">
    <path
       d="m 16.035156,311.07812 c -4.097656,0 -8.195312,-1.55859 -11.308594,-4.69531 -6.25,-6.25 -6.25,-16.38281 0,-22.63281 L 283.78906,4.6875 c 6.25,-6.25 16.38281,-6.25 22.63281,0 6.25,6.25 6.25,16.382812 0,22.636719 L 27.363281,306.38281 c -3.136719,3.11719 -7.234375,4.69531 -11.328125,4.69531 z m 0,0"
       id="path19" />
    <path
       d="m 295.11719,311.07812 c -4.09766,0 -8.19141,-1.55859 -11.3086,-4.69531 L 4.726562,27.324219 c -6.25,-6.253907 -6.25,-16.386719 0,-22.636719 6.25,-6.25 16.382813,-6.25 22.636719,0 L 306.42187,283.75 c 6.25,6.25 6.25,16.38281 0,22.63281 -3.13671,3.11719 -7.23046,4.69531 -11.30468,4.69531 z m 0,0"
       id="path21" />
  </g>
</svg>
