<?xml version="1.0" encoding="UTF-8" standalone="no"?>
<!-- Generator: Adobe Illustrator 16.0.0, SVG Export Plug-In . SVG Version: 6.00 Build 0)  -->

<svg
   version="1.1"
   id="Capa_1"
   x="0px"
   y="0px"
   width="18.000999"
   height="18.000999"
   viewBox="0 0 18.000999 18.000999"
   xml:space="preserve"
   sodipodi:docname="default_master_server.svg"
   inkscape:version="1.1 (c68e22c387, 2021-05-23)"
   xmlns:inkscape="http://www.inkscape.org/namespaces/inkscape"
   xmlns:sodipodi="http://sodipodi.sourceforge.net/DTD/sodipodi-0.dtd"
   xmlns="http://www.w3.org/2000/svg"
   xmlns:svg="http://www.w3.org/2000/svg"><defs
   id="defs42" /><sodipodi:namedview
   id="namedview40"
   pagecolor="#505050"
   bordercolor="#eeeeee"
   borderopacity="1"
   inkscape:pageshadow="0"
   inkscape:pageopacity="0"
   inkscape:pagecheckerboard="0"
   showgrid="false"
   inkscape:zoom="1.4248366"
   inkscape:cx="306"
   inkscape:cy="306.35092"
   inkscape:window-width="1920"
   inkscape:window-height="1057"
   inkscape:window-x="-8"
   inkscape:window-y="-8"
   inkscape:window-maximized="1"
   inkscape:current-layer="Capa_1" />
<g
   id="g7"
   transform="matrix(0.02941176,0,0,0.02941176,5.0116534e-4,5.0116534e-4)">
	<g
   id="_x33__4_">
		<g
   id="g4">
			<path
   d="M 306,0 C 136.992,0 0,136.992 0,306 0,474.988 136.992,612 306,612 475.008,612 612,475.008 612,306 612,136.992 475.008,0 306,0 Z m 221.773,156.271 c 25.628,37.752 41.826,82.391 45.25,130.604 H 419.928 c -0.956,-35.553 -3.939,-70.284 -9.601,-103.428 41.444,-5.89 80.822,-14.994 117.446,-27.176 z M 501.438,123.28 c -31.231,9.869 -64.203,17.404 -98.57,22.472 -8.032,-35.037 -18.437,-68.295 -31.174,-99.048 50.452,12.755 95.224,39.798 129.744,76.576 z M 230.399,286.875 c 1.014,-33.679 4.074,-66.804 9.849,-98.627 21.497,1.893 43.414,3.002 65.752,3.002 22.338,0 44.255,-1.109 65.771,-3.002 5.757,31.824 8.817,64.948 9.831,98.627 z m 151.203,38.25 c -1.014,33.679 -4.074,66.804 -9.85,98.628 -21.497,-1.894 -43.414,-3.003 -65.752,-3.003 -22.338,0 -44.255,1.109 -65.771,3.003 -5.756,-31.824 -8.816,-64.968 -9.83,-98.628 z M 287.43,39.187 c 6.158,-0.42 12.297,-0.937 18.57,-0.937 6.273,0 12.412,0.517 18.57,0.937 16.295,33.909 29.452,71.604 39.226,111.633 -19.029,1.645 -38.288,2.658 -57.796,2.658 -19.507,0 -38.767,-0.995 -57.796,-2.658 9.773,-40.029 22.95,-77.743 39.226,-111.633 z m -47.105,7.516 c -12.737,30.753 -23.16,64.012 -31.174,99.048 -34.387,-5.068 -67.358,-12.603 -98.589,-22.472 34.52,-36.777 79.292,-63.82 129.763,-76.576 z M 84.227,156.271 c 36.625,12.183 76.003,21.305 117.447,27.176 -5.642,33.144 -8.645,67.875 -9.601,103.428 H 38.977 C 42.4,238.661 58.599,194.023 84.227,156.271 Z m 0,299.458 C 58.6,417.976 42.4,373.338 38.977,325.125 h 153.096 c 0.957,35.554 3.94,70.284 9.601,103.428 -41.445,5.872 -80.823,14.994 -117.447,27.176 z m 26.335,32.972 c 31.231,-9.868 64.203,-17.404 98.57,-22.453 8.033,35.037 18.437,68.296 31.174,99.049 -50.452,-12.757 -95.224,-39.818 -129.744,-76.596 z m 214.008,84.111 c -6.158,0.421 -12.297,0.938 -18.57,0.938 -6.273,0 -12.412,-0.517 -18.57,-0.938 -16.275,-33.889 -29.453,-71.604 -39.226,-111.632 19.029,-1.664 38.289,-2.659 57.796,-2.659 19.508,0 38.767,0.995 57.796,2.659 -9.774,40.009 -22.95,77.724 -39.226,111.632 z m 47.105,-7.515 c 12.737,-30.753 23.161,-64.012 31.174,-99.049 34.387,5.068 67.358,12.604 98.57,22.453 -34.501,36.778 -79.273,63.839 -129.744,76.596 z M 527.773,455.729 c -36.624,-12.183 -76.003,-21.305 -117.446,-27.177 5.642,-33.144 8.645,-67.874 9.601,-103.428 h 153.096 c -3.424,48.215 -19.623,92.853 -45.251,130.605 z"
   id="path2" />
		</g>
	</g>
</g>
<g
   id="g9">
</g>
<g
   id="g11">
</g>
<g
   id="g13">
</g>
<g
   id="g15">
</g>
<g
   id="g17">
</g>
<g
   id="g19">
</g>
<g
   id="g21">
</g>
<g
   id="g23">
</g>
<g
   id="g25">
</g>
<g
   id="g27">
</g>
<g
   id="g29">
</g>
<g
   id="g31">
</g>
<g
   id="g33">
</g>
<g
   id="g35">
</g>
<g
   id="g37">
</g>
</svg>
