<?xml version="1.0" encoding="UTF-8" standalone="no"?>
<svg
   height="14.59666"
   viewBox="0 -57 13.526412 10.947494"
   width="18"
   version="1.1"
   id="svg6"
   sodipodi:docname="folder.svg"
   inkscape:version="1.1 (c68e22c387, 2021-05-23)"
   xmlns:inkscape="http://www.inkscape.org/namespaces/inkscape"
   xmlns:sodipodi="http://sodipodi.sourceforge.net/DTD/sodipodi-0.dtd"
   xmlns="http://www.w3.org/2000/svg"
   xmlns:svg="http://www.w3.org/2000/svg">
  <defs
     id="defs10" />
  <sodipodi:namedview
     id="namedview8"
     pagecolor="#505050"
     bordercolor="#eeeeee"
     borderopacity="1"
     inkscape:pageshadow="0"
     inkscape:pageopacity="0"
     inkscape:pagecheckerboard="0"
     inkscape:document-units="pt"
     showgrid="false"
     height="18pt"
     units="px"
     inkscape:zoom="14.479776"
     inkscape:cx="10.773648"
     inkscape:cy="16.747497"
     inkscape:window-width="1920"
     inkscape:window-height="1057"
     inkscape:window-x="-8"
     inkscape:window-y="-8"
     inkscape:window-maximized="1"
     inkscape:current-layer="svg6" />
  <g
     id="g14"
     transform="matrix(0.02641879,0,0,0.02762815,6.2674531e-7,-57.02702)">
    <path
       d="m 506.03906,180.98828 c -7.78125,-12.54687 -21.53125,-20.04687 -36.78125,-20.04687 h -339.5625 c -16.83203,0 -32.140622,9.48828 -39.011716,24.17968 l -89.8125,188.3086 c 3.390625,13.78906 16.269531,24.08984 31.609375,24.08984 H 393.75 c 15.44531,0 29.5625,-8.73437 36.46094,-22.55469 l 77.6289,-155.59375 c 6.12891,-12.3125 5.44922,-26.66015 -1.80078,-38.38281 z m 0,0"
       id="path2" />
    <path
       d="m 72.402344,156.15625 c 6.863281,-14.6875 22.175781,-24.17969 39.011716,-24.17969 H 431.16797 V 91.078125 C 431.16797,74.21875 416.94531,60.5 399.46484,60.5 H 213.01953 c -0.27344,0 -0.46094,-0.07031 -0.53125,-0.121094 L 179.11719,13.71875 C 173.20703,5.441406 163.44531,0.5 153.01563,0.5 H 31.710938 C 14.222656,0.5 0,14.21875 0,31.078125 V 307.95312 Z m 0,0"
       id="path4" />
  </g>
</svg>
