<?xml version="1.0" encoding="UTF-8" standalone="no"?>
<!-- Generator: Adobe Illustrator 19.1.0, SVG Export Plug-In . SVG Version: 6.00 Build 0)  -->

<svg
   version="1.1"
   id="Capa_1"
   x="0px"
   y="0px"
   viewBox="0 0 18.000999 18.000999"
   xml:space="preserve"
   sodipodi:docname="plus.svg"
   width="18.000999"
   height="18.000999"
   inkscape:version="1.1 (c68e22c387, 2021-05-23)"
   xmlns:inkscape="http://www.inkscape.org/namespaces/inkscape"
   xmlns:sodipodi="http://sodipodi.sourceforge.net/DTD/sodipodi-0.dtd"
   xmlns="http://www.w3.org/2000/svg"
   xmlns:svg="http://www.w3.org/2000/svg"><defs
   id="defs37" /><sodipodi:namedview
   id="namedview35"
   pagecolor="#505050"
   bordercolor="#eeeeee"
   borderopacity="1"
   inkscape:pageshadow="0"
   inkscape:pageopacity="0"
   inkscape:pagecheckerboard="0"
   showgrid="false"
   inkscape:zoom="13.86592"
   inkscape:cx="9.4476241"
   inkscape:cy="12.368454"
   inkscape:window-width="1920"
   inkscape:window-height="1057"
   inkscape:window-x="-8"
   inkscape:window-y="-8"
   inkscape:window-maximized="1"
   inkscape:current-layer="Capa_1" />
<path
   style="fill:#000000;stroke-width:0.572601"
   d="m 0.63683155,9.641067 c -0.35453591,0 -0.63633182466,-0.2908026 -0.63633182466,-0.6451468 0,-0.3543443 0.28179591466,-0.6359878 0.63633182466,-0.6359878 H 8.3547174 V 0.64564666 C 8.3552902,0.29130242 8.6462502,4.9972534e-4 9.0007861,4.9972534e-4 c 0.3545359,0 0.6363318,0.29080269466 0.6363318,0.64514693466 V 8.3599324 h 7.7178861 c 0.354536,0 0.645496,0.2816435 0.645496,0.6359878 0,0.3543442 -0.29096,0.6451468 -0.645496,0.6451468 H 9.6371179 v 7.714286 c 0,0.354344 -0.2817959,0.645147 -0.6363318,0.645147 -0.3545359,0 -0.6454959,-0.290803 -0.6454959,-0.645147 V 9.641067 Z"
   id="path2" />
<g
   id="g4">
</g>
<g
   id="g6">
</g>
<g
   id="g8">
</g>
<g
   id="g10">
</g>
<g
   id="g12">
</g>
<g
   id="g14">
</g>
<g
   id="g16">
</g>
<g
   id="g18">
</g>
<g
   id="g20">
</g>
<g
   id="g22">
</g>
<g
   id="g24">
</g>
<g
   id="g26">
</g>
<g
   id="g28">
</g>
<g
   id="g30">
</g>
<g
   id="g32">
</g>
</svg>
