<?xml version="1.0" encoding="UTF-8" standalone="no"?>
<!-- Generator: Adobe Illustrator 19.0.0, SVG Export Plug-In . SVG Version: 6.00 Build 0)  -->

<svg
   version="1.1"
   id="Capa_1"
   x="0px"
   y="0px"
   viewBox="0 0 18.000999 18.000999"
   xml:space="preserve"
   sodipodi:docname="refresh.svg"
   width="18.000999"
   height="18.000999"
   inkscape:version="1.1 (c68e22c387, 2021-05-23)"
   xmlns:inkscape="http://www.inkscape.org/namespaces/inkscape"
   xmlns:sodipodi="http://sodipodi.sourceforge.net/DTD/sodipodi-0.dtd"
   xmlns="http://www.w3.org/2000/svg"
   xmlns:svg="http://www.w3.org/2000/svg"><defs
   id="defs47" /><sodipodi:namedview
   id="namedview45"
   pagecolor="#505050"
   bordercolor="#eeeeee"
   borderopacity="1"
   inkscape:pageshadow="0"
   inkscape:pageopacity="0"
   inkscape:pagecheckerboard="0"
   showgrid="false"
   inkscape:zoom="13.625"
   inkscape:cx="26.201835"
   inkscape:cy="23.229358"
   inkscape:window-width="1920"
   inkscape:window-height="1057"
   inkscape:window-x="-8"
   inkscape:window-y="-8"
   inkscape:window-maximized="1"
   inkscape:current-layer="Capa_1" />

<g
   id="g55"
   transform="matrix(0.03515639,0,0,0.03515625,4.6092974e-4,4.9972534e-4)"><g
     id="g6">
	<g
   id="g4">
		<path
   d="m 493.815,70.629 c -11.001,-1.003 -20.73,7.102 -21.733,18.102 l -2.65,29.069 C 424.473,47.194 346.429,0 256,0 158.719,0 72.988,55.522 30.43,138.854 c -5.024,9.837 -1.122,21.884 8.715,26.908 9.839,5.024 21.884,1.123 26.908,-8.715 C 102.07,86.523 174.397,40 256,40 c 74.377,0 141.499,38.731 179.953,99.408 l -28.517,-20.367 c -8.989,-6.419 -21.48,-4.337 -27.899,4.651 -6.419,8.989 -4.337,21.479 4.651,27.899 l 86.475,61.761 c 12.674,9.035 30.155,0.764 31.541,-14.459 l 9.711,-106.53 c 1.004,-11.001 -7.1,-20.731 -18.1,-21.734 z"
   id="path2" />
	</g>
</g><g
     id="g12">
	<g
   id="g10">
		<path
   d="m 472.855,346.238 c -9.838,-5.023 -21.884,-1.122 -26.908,8.715 C 409.93,425.477 337.603,472 256,472 181.623,472 114.501,433.269 76.047,372.592 l 28.517,20.367 c 8.989,6.419 21.479,4.337 27.899,-4.651 6.419,-8.989 4.337,-21.479 -4.651,-27.899 L 41.337,298.648 C 28.818,289.704 11.196,297.727 9.796,313.107 l -9.711,106.53 c -1.003,11 7.102,20.73 18.101,21.733 11.014,1.001 20.731,-7.112 21.733,-18.102 l 2.65,-29.069 C 87.527,464.806 165.571,512 256,512 c 97.281,0 183.012,-55.522 225.57,-138.854 5.024,-9.837 1.122,-21.884 -8.715,-26.908 z"
   id="path8" />
	</g>
</g></g>
<g
   id="g14">
</g>
<g
   id="g16">
</g>
<g
   id="g18">
</g>
<g
   id="g20">
</g>
<g
   id="g22">
</g>
<g
   id="g24">
</g>
<g
   id="g26">
</g>
<g
   id="g28">
</g>
<g
   id="g30">
</g>
<g
   id="g32">
</g>
<g
   id="g34">
</g>
<g
   id="g36">
</g>
<g
   id="g38">
</g>
<g
   id="g40">
</g>
<g
   id="g42">
</g>
</svg>
