<?xml version="1.0" encoding="UTF-8" standalone="no"?>
<!-- Created with Inkscape (http://www.inkscape.org/) -->

<svg
   width="18.000999"
   height="28.000999"
   viewBox="0 0 16.875937 26.250937"
   id="svg2"
   version="1.1"
   inkscape:version="1.1 (c68e22c387, 2021-05-23)"
   sodipodi:docname="skyrim.svg"
   xmlns:inkscape="http://www.inkscape.org/namespaces/inkscape"
   xmlns:sodipodi="http://sodipodi.sourceforge.net/DTD/sodipodi-0.dtd"
   xmlns="http://www.w3.org/2000/svg"
   xmlns:svg="http://www.w3.org/2000/svg"
   xmlns:rdf="http://www.w3.org/1999/02/22-rdf-syntax-ns#"
   xmlns:cc="http://creativecommons.org/ns#"
   xmlns:dc="http://purl.org/dc/elements/1.1/">
  <defs
     id="defs4" />
  <sodipodi:namedview
     id="base"
     pagecolor="#ffffff"
     bordercolor="#666666"
     borderopacity="1.0"
     inkscape:pageopacity="0.0"
     inkscape:pageshadow="2"
     inkscape:zoom="15.839192"
     inkscape:cx="8.0180858"
     inkscape:cy="18.214313"
     inkscape:document-units="px"
     inkscape:current-layer="layer1"
     showgrid="false"
     inkscape:window-width="1920"
     inkscape:window-height="1057"
     inkscape:window-x="-8"
     inkscape:window-y="-8"
     inkscape:window-maximized="1"
     inkscape:pagecheckerboard="0"
     units="px" />
  <metadata
     id="metadata7">
    <rdf:RDF>
      <cc:Work
         rdf:about="">
        <dc:format>image/svg+xml</dc:format>
        <dc:type
           rdf:resource="http://purl.org/dc/dcmitype/StillImage" />
      </cc:Work>
    </rdf:RDF>
  </metadata>
  <g
     inkscape:label="Layer 1"
     inkscape:groupmode="layer"
     id="layer1">
    <path
       style="fill:#000000;stroke-width:0.0316221"
       d="m 8.2334185,26.030173 c -0.0665,-0.121163 -0.32817,-0.593066 -0.58146,-1.048658 -0.99808,-1.795251 -1.03996,-1.89387 -0.89937,-2.117813 0.0416,-0.06627 0.24334,-0.326705 0.44828,-0.578735 0.45814,-0.563403 0.51426,-0.651449 0.51426,-0.806888 0,-0.07363 -0.10455,-0.318508 -0.26034,-0.609795 -0.15563,-0.290982 -0.26969,-0.558093 -0.28359,-0.66411 -0.0216,-0.164523 -0.004,-0.209138 0.24372,-0.616859 0.14683,-0.241728 0.41352,-0.653645 0.59265,-0.91537 0.46552,-0.680176 0.51955,-0.801307 0.52078,-1.167412 5.5e-4,-0.167095 -0.0285,-0.444682 -0.0646,-0.616856 -0.10345,-0.493527 -0.35346,-1.244828 -0.49127,-1.476264 -0.26083,-0.438071 -0.70995,-0.80567 -1.29213,-1.057591 -0.15666,-0.06779 -0.29404,-0.123247 -0.30531,-0.123247 -0.0113,0 -0.0181,0.210173 -0.0152,0.46705 0.005,0.463688 -0.0352,0.801914 -0.0959,0.801914 -0.0174,0 -0.0563,-0.09833 -0.0865,-0.218512 -0.14032,-0.558794 -0.54223,-0.99302 -1.14078,-1.232522 l -0.34284,-0.137184 -0.0285,0.60905 c -0.0173,0.368819 -0.0722,0.836452 -0.13928,1.185578 -0.0609,0.317091 -0.11078,0.618802 -0.11078,0.670468 0,0.122765 0.32238,0.57328 0.57674,0.805974 0.24142,0.220865 0.78218,0.526104 0.98841,0.557928 l 0.14904,0.023 v 2.082818 c 0,1.14555 -0.0163,2.067749 -0.0363,2.049331 -0.02,-0.01842 -0.44681,-0.771073 -0.94852,-1.672565 -0.50171,-0.901493 -1.29747,-2.329077 -1.76836,-3.172409 -0.47088,-0.843332 -1.06348,-1.906091 -1.31689,-2.361683 -0.90294,-1.623347 -1.62401,-2.913779 -1.83985,-3.292593 l -0.21911,-0.38455 1.44093,-2.5763642 c 0.79251,-1.4170006 1.55236,-2.7746396 1.68856,-3.0169766 0.59446,-1.0577201 2.06353,-3.6836331 2.49382,-4.45761996 0.59743,-1.07464152 0.54151,-0.9916573 0.62305,-0.92458175 0.05,0.04114445 0.0707,0.15997022 0.085,0.4887851 0.0217,0.50046111 0.054,0.60877131 0.26092,0.87503261 0.13465,0.1732656 0.26534,0.4403234 0.26534,0.5421827 0,0.020627 -0.082,-0.036011 -0.18213,-0.125829 -0.10017,-0.089833 -0.24963,-0.181289 -0.33212,-0.2032379 -0.13702,-0.036447 -0.15795,-0.032355 -0.24193,0.047413 -0.17908,0.170086 -0.54674,1.2202166 -1.14289,3.2643752 -0.49171,1.6860635 -0.58703,2.1677506 -0.47376,2.3940264 0.0332,0.066251 0.22531,0.2612602 0.42699,0.4333388 0.35753,0.3050585 0.4908,0.4813605 0.55392,0.7327818 l 0.031,0.1233711 -0.27324,-0.2149265 c -0.15027,-0.1182066 -0.33798,-0.2424706 -0.41713,-0.2761359 -0.20663,-0.087889 -0.55211,-0.1099 -0.73552,-0.046869 l -0.15064,0.051768 -0.20307,0.859936 c -0.35202,1.4906861 -0.38735,1.8522701 -0.20507,2.0987991 0.16988,0.229779 0.69738,0.336946 1.2886,0.261796 0.45461,-0.05779 0.61144,-0.128054 0.66206,-0.296653 0.0344,-0.114505 0.0252,-0.159488 -0.0596,-0.290854 -0.0947,-0.146814 -0.32057,-0.341734 -0.55965,-0.482944 -0.1069,-0.06314 -0.10658,-0.06323 0.14184,-0.04351 0.65539,0.05205 1.33273,0.581682 1.59329,1.245848 0.0404,0.10304 0.0832,0.179341 0.0951,0.169565 0.0522,-0.04297 -0.0834,-0.612311 -0.20037,-0.841383 -0.0706,-0.138165 -0.12277,-0.255785 -0.11599,-0.261365 0.0227,-0.01867 0.34842,0.172312 0.5137,0.30119 0.0899,0.07008 0.20445,0.181771 0.25461,0.248211 0.14978,0.198409 0.13074,0.07456 -0.057,-0.370569 -0.38384,-0.9102651 -0.39618,-0.9530942 -0.40018,-1.3893093 -0.004,-0.3862443 0.003,-0.4166243 0.13378,-0.6441338 0.26318,-0.4570097 0.71288,-0.7343605 1.64097,-1.0120723 0.64327,-0.1924845 0.939,-0.3246335 1.20073,-0.5365406 0.29598,-0.2396333 0.3606105,-0.3520985 0.3604405,-0.6271721 0,-0.2728521 -0.0994,-0.4533511 -0.3528005,-0.6416386 -0.38781,-0.2881884 -0.86886,-0.4351962 -1.33441,-0.4077982 -0.34002,0.020005 -0.57773,0.1026818 -0.93553,0.3253181 -0.32414,0.2017026 -0.4924,0.3937249 -0.59001,0.6733174 -0.0877,0.2511663 -0.0858,0.2490958 -0.17184,0.1903658 -0.11171,-0.076253 -0.22699,-0.2931025 -0.25798,-0.4852338 -0.0266,-0.1652186 -0.0183,-0.1907048 0.10355,-0.3172804 0.18186,-0.18886 0.2208,-0.2894282 0.2208,-0.5701328 0,-0.2194531 0.0206,-0.2763569 0.22499,-0.6227356 l 0.22499,-0.3812122 -0.013,-0.5710864 c -0.0121,-0.5291658 -0.006,-0.5822538 0.0806,-0.7232446 0.11554,-0.1877603 0.25684,-0.355331 0.28209,-0.334558 0.0104,0.00855 -0.003,0.1188444 -0.0297,0.245101 -0.04,0.188871 -0.0368,0.2673176 0.0177,0.4424903 0.10435,0.3350417 0.31918,0.7644979 0.43291,0.865438 0.10211,0.090627 0.11373,0.092198 0.67996,0.092198 0.70424,0 1.0655,-0.073858 1.25308,-0.2561611 l 0.11724,-0.11396 -0.0315,0.1057467 c -0.037,0.1239778 -0.14791,0.2291614 -0.36301,0.3441511 -0.60411,0.3229489 -0.76806,0.4231749 -0.81813,0.5001189 -0.0828,0.1272755 -0.0146,0.1745551 0.41394,0.2867838 0.59764,0.1565262 1.0343705,0.4398799 1.2645705,0.8204669 0.0843,0.1394243 0.0989,0.2177513 0.0989,0.5335337 0,0.33096 -0.0126,0.3922271 -0.11902,0.5791458 -0.24926,0.4377831 -0.4971005,0.6116801 -1.4915305,1.0465403 -0.76321,0.3337507 -0.85265,0.3860111 -0.98812,0.5773756 -0.0761,0.1074733 -0.0993,0.192248 -0.0975,0.3565115 0.003,0.2578209 0.0248,0.2915686 0.6396,0.9843449 0.61157,0.689079 0.71377,0.851265 0.95422,1.514312 l 0.0384,0.105746 0.0557,-0.140996 c 0.11488,-0.290573 0.29912,-0.537777 0.5277305,-0.708086 0.26364,-0.196401 0.53204,-0.337641 0.49012,-0.257906 -0.19386,0.368679 -0.28285,0.614354 -0.30522,0.842621 -0.028,0.286154 -0.01,0.276281 0.14753,-0.0788 0.16721,-0.377956 0.51785,-0.731005 0.94417,-0.950662 0.14834,-0.07643 0.53831,-0.169439 0.70084,-0.167154 l 0.13151,0.0019 -0.10714,0.05984 c -0.2185,0.122034 -0.48108,0.342605 -0.56073,0.471024 -0.17334,0.279485 -0.0787,0.454933 0.29488,0.546661 0.29363,0.0721 0.989,0.08296 1.21174,0.01893 0.21716,-0.06242 0.41097,-0.242121 0.4752,-0.440597 0.0664,-0.205061 0.0131,-0.544564 -0.29387,-1.8718022 l -0.2029,-0.8773877 -0.13937,-0.047895 c -0.35931,-0.12348 -0.73018,-0.023255 -1.15728,0.3127335 l -0.28089,0.220976 0.031,-0.123371 c 0.0631,-0.2512441 0.19408,-0.4232745 0.56863,-0.7466621 0.46868,-0.4046559 0.50529,-0.4782789 0.43828,-0.8813482 -0.0698,-0.4197931 -0.30521,-1.3080853 -0.64286,-2.4256211 -0.54375,-1.7996969 -0.84058,-2.6215871 -0.99977,-2.7682666 -0.0846,-0.077948 -0.10566,-0.081605 -0.263371,-0.045578 -0.12361,0.028233 -0.21135,0.082772 -0.31455,0.195496 -0.0787,0.085991 -0.1523,0.1487889 -0.16352,0.1395489 -0.0462,-0.038018 0.0905,-0.3351444 0.27307,-0.5936327 l 0.19498,-0.276013 0.0419,-0.50241023 c 0.0391,-0.46866087 0.0866,-0.63285753 0.16363,-0.56559064 0.0176,0.0154 0.18582,0.30551732 0.37384,0.64478864 0.18801,0.33927132 0.73735,1.32271833 1.22076,2.18543723 1.461711,2.6086914 4.36379,7.7958842 4.46674,7.9838962 l 0.0965,0.176245 -1.3663,2.449805 c -0.75146,1.347391 -1.54803,2.774976 -1.77016,3.172408 -1.80306,3.22606 -2.91015,5.210349 -2.94015,5.269724 -0.0196,0.03878 -0.0368,-0.875494 -0.0383,-2.031705 l -0.003,-2.102205 0.14487,-0.02235 c 0.204739,-0.03159 0.646899,-0.276116 0.92543,-0.511783 0.13022,-0.11018 0.33496,-0.336906 0.45497,-0.503833 l 0.21821,-0.303502 -0.0571,-0.293723 c -0.16533,-0.850813 -0.19716,-1.083187 -0.2228,-1.626843 l -0.028,-0.592893 -0.34593,0.14252 c -0.60527,0.249361 -0.99806,0.674068 -1.1377,1.230117 -0.0302,0.120183 -0.0676,0.218515 -0.0831,0.218515 -0.0709,0 -0.13728,-0.546465 -0.10939,-0.901253 l 0.0291,-0.370776 -0.1381,0.05874 c -0.19733,0.08394 -0.5677005,0.399218 -0.6781405,0.577282 -0.23738,0.382717 -0.26478,0.677249 -0.15233,1.637449 0.14459,1.234674 0.13684,1.259357 -0.74809,2.382458 -0.697,0.884596 -0.87061,1.146436 -0.87339,1.317269 -0.001,0.08007 0.0815,0.383494 0.18391,0.674299 0.10246,0.290804 0.18632,0.585107 0.18636,0.654006 0,0.141353 -0.0651,0.23488 -0.61262,0.879326 -0.58285,0.685983 -0.59394,0.716445 -0.38497,1.056948 0.16304,0.265659 0.35289,0.443427 0.57156,0.535185 0.14767,0.06196 0.23077,0.07015 0.5826,0.05745 0.47519,-0.01717 0.69454,-0.09143 1.15278,-0.390317 l 0.27101,-0.176767 -0.0627,0.119669 c -0.11301,0.215532 -1.13002,2.087028 -1.28617,2.366792 -0.0839,0.150251 -0.16402,0.27318 -0.17813,0.27318 -0.0141,0 -0.0801,-0.09913 -0.1466,-0.220306 z"
       id="path4201"
       inkscape:connector-curvature="0" />
    <path
       style="fill:#e6e6e6;stroke-width:0.0631345"
       d="M 8.546239,27.25947 C 7.6882578,25.731928 7.1975073,24.76913 7.1974253,24.613247 c -6e-5,-0.113126 0.1631781,-0.375384 0.5056413,-0.812362 0.2781512,-0.354917 0.5229882,-0.714067 0.5440821,-0.798111 0.027069,-0.107852 -0.04742,-0.33022 -0.2531916,-0.755845 -0.1603491,-0.331671 -0.2915439,-0.681996 -0.2915439,-0.7785 0,-0.111165 0.1769149,-0.450345 0.4827948,-0.925607 C 9.0053332,19.268549 9.0368203,19.213806 9.0930491,18.964495 9.200523,18.48797 8.9229338,17.207721 8.55367,16.476863 8.3025517,15.979842 7.5416221,15.387614 6.8974478,15.187834 c -0.139615,-0.0433 -0.1420527,-0.03486 -0.1420527,0.491679 0,0.744723 -0.046673,0.823501 -0.2261984,0.381789 C 6.4484931,15.862735 6.2746724,15.589885 6.1429286,15.454967 5.9188737,15.225514 5.250889,14.836616 5.0808275,14.836616 c -0.080604,0 -0.1563254,0.409414 -0.1563462,0.845344 -6.8e-6,0.142731 -0.05698,0.608656 -0.1266063,1.035391 -0.146721,0.899238 -0.1362179,0.941634 0.3663986,1.478972 0.3087684,0.330098 0.9778238,0.744037 1.2025979,0.744037 H 6.502857 v 2.157097 c 0,1.186403 -0.011563,2.145258 -0.025695,2.130791 C 6.359166,23.107448 0.10093915,11.835534 0.10008531,11.74227 0.09879424,11.601248 6.5709842,0.05876804 6.6306666,0.09565401 c 0.027995,0.0173017 0.069971,0.25144975 0.093279,0.52032899 0.035003,0.4037667 0.081012,0.5527841 0.2642938,0.8560093 0.1220523,0.2019259 0.2103769,0.3786744 0.1962765,0.3927746 -0.0141,0.0141 -0.1490506,-0.035424 -0.2998903,-0.1100533 L 6.610372,1.6190236 6.4700201,1.7821922 C 6.1370207,2.1693271 4.8201731,6.4512679 4.7525232,7.366908 L 4.7190044,7.8205852 5.2321235,8.322114 C 5.8258707,8.9024504 5.9232338,9.1394789 5.4321095,8.8089766 4.985082,8.5081493 4.3646115,8.4390252 4.1780979,8.6692731 4.0944725,8.7725069 3.6625336,10.737305 3.61754,11.219131 c -0.043879,0.469893 0.057516,0.672518 0.410294,0.819918 0.3243771,0.135534 1.4360217,0.09444 1.6746353,-0.06191 C 5.971846,11.80064 5.9282709,11.585115 5.5493699,11.219903 L 5.2272282,10.9094 5.4388845,10.95518 c 0.5902402,0.127675 1.1805321,0.596057 1.4874758,1.180275 0.1742229,0.331605 0.1753953,0.332427 0.1949563,0.136513 0.010824,-0.108405 -0.036519,-0.356997 -0.105208,-0.552427 -0.068688,-0.19543 -0.099733,-0.355328 -0.068988,-0.355328 0.030745,0 0.2156922,0.130153 0.4109951,0.28923 0.1953023,0.159075 0.3649852,0.279339 0.3770723,0.267251 C 7.7472753,11.908609 7.6273853,11.57248 7.4687655,11.173742 7.0903106,10.222386 7.0412462,9.7345926 7.2825874,9.3227755 7.5847777,8.8071273 7.9452166,8.5822775 9.0823472,8.2000459 9.8714474,7.9348006 10.229463,7.7484149 10.503401,7.4602329 10.652934,7.3029256 10.684306,7.2152766 10.684306,6.9548131 10.684306,6.6047625 10.59868,6.445803 10.285762,6.2149397 9.7700407,5.8344525 8.9259308,5.7001934 8.3292217,5.9037441 7.9192374,6.0435988 7.4404724,6.4284119 7.2790292,6.747848 7.0925443,7.1168347 7.0962396,7.1154356 6.9484372,6.8730009 6.7805663,6.5976497 6.7848613,6.4467538 6.9676206,6.1990378 7.0560708,6.0791505 7.132343,5.8649744 7.1551428,5.6724676 7.1795847,5.4660938 7.2746925,5.2118038 7.4164263,4.973875 7.6319146,4.6121333 7.6392786,4.5787828 7.6392786,3.9646191 c 0,-0.5332553 0.021083,-0.6692655 0.1314183,-0.8477913 0.07228,-0.1169516 0.136204,-0.2126392 0.1420527,-0.2126392 0.00585,0 0.011088,0.1633606 0.011641,0.3630235 7.892e-4,0.2834145 0.046411,0.4530165 0.2080555,0.7733981 0.113877,0.2257059 0.2538039,0.4458876 0.3109489,0.4892926 0.1270223,0.096481 1.0568532,0.105867 1.5334627,0.01548 0.1839803,-0.034891 0.3455153,-0.052432 0.3589673,-0.03898 0.01345,0.013452 -0.184752,0.1392785 -0.4404519,0.2796148 -0.779118,0.4276048 -0.7943057,0.541596 -0.1014389,0.7613668 0.5794168,0.1837855 1.0011638,0.4458994 1.2157928,0.7556092 0.136817,0.1974268 0.165086,0.308757 0.165086,0.6501589 0,0.7553018 -0.376823,1.1227586 -1.7802868,1.7360406 -0.878428,0.3838529 -1.0607681,0.55066 -1.0607681,0.9704036 0,0.3325587 -8.586e-4,0.3311804 0.7284879,1.1679763 0.5119617,0.587384 0.6441623,0.785732 0.851933,1.278207 l 0.175052,0.414921 0.160995,-0.317708 c 0.21747,-0.429155 0.98488,-1.103298 0.829051,-0.728291 -0.188074,0.452603 -0.28503,1.010359 -0.162465,0.93461 0.03172,-0.0196 0.119198,-0.16274 0.194397,-0.31808 0.257672,-0.532279 0.878917,-1.019989 1.434449,-1.126116 l 0.202857,-0.03875 -0.313342,0.302021 c -0.369864,0.356501 -0.411695,0.573554 -0.1443,0.748758 0.218918,0.14344 1.377692,0.199259 1.665104,0.08021 0.479829,-0.198752 0.536089,-0.549827 0.280379,-1.749634 C 13.866013,8.5700395 13.887499,8.6295703 13.606704,8.5631635 13.286461,8.487428 12.895766,8.5886983 12.52557,8.8434 12.037493,9.1792057 12.249624,8.823809 12.926796,8.1711984 c 0.32176,-0.3100896 0.394591,-0.4173748 0.394591,-0.5812626 0,-0.289754 -0.495809,-2.1804703 -0.947307,-3.6124602 -0.437868,-1.3887566 -0.666304,-2.0009049 -0.806931,-2.1623577 -0.12947,-0.1486434 -0.401582,-0.1394802 -0.604793,0.020366 -0.227116,0.1786492 -0.208725,0.071075 0.05479,-0.3205116 0.182645,-0.27141 0.228225,-0.4071527 0.26182,-0.77974239 0.06325,-0.70148824 0.09754,-0.75055372 0.290724,-0.41604254 1.113957,1.92887613 6.361477,11.39835063 6.347589,11.45461463 -0.01025,0.04153 -1.439169,2.62099 -3.175368,5.732125 -3.148086,5.641123 -3.156844,5.655883 -3.199398,5.392205 -0.02347,-0.145421 -0.04478,-1.082096 -0.04735,-2.081501 -0.0043,-1.678031 0.0038,-1.819674 0.105806,-1.850741 0.576094,-0.175416 1.230806,-0.665766 1.594592,-1.194279 l 0.174351,-0.253297 -0.119042,-0.599019 c -0.06547,-0.32946 -0.13755,-0.932842 -0.160171,-1.340849 -0.03058,-0.551583 -0.0625,-0.74183 -0.124467,-0.74183 -0.196784,0 -0.835672,0.36655 -1.10333,0.633015 -0.204191,0.203281 -0.328295,0.400735 -0.41773,0.664625 l -0.127235,0.375425 -0.04805,-0.369267 c -0.02643,-0.203097 -0.03156,-0.50851 -0.0114,-0.678697 0.04386,-0.37029 -0.01537,-0.391009 -0.374089,-0.130859 -0.690899,0.501055 -0.841831,0.917371 -0.72793,2.007849 0.09505,0.909999 0.0902,1.434265 -0.0156,1.68749 -0.04781,0.114427 -0.3990937,0.618872 -0.780629,1.120989 -0.7213695,0.949354 -0.9009759,1.234198 -0.8990945,1.425906 6.314e-4,0.06249 0.085845,0.382118 0.1894036,0.710282 0.103559,0.328164 0.1882887,0.645925 0.1882887,0.706135 0,0.06021 -0.2436084,0.402539 -0.5413521,0.76073 -0.2977438,0.358192 -0.5692362,0.72122 -0.6033168,0.806728 -0.1180155,0.296104 0.2966982,0.911202 0.7226208,1.071782 0.4440347,0.167407 1.2827751,0.03505 1.7540003,-0.276795 0.135526,-0.08969 0.246411,-0.148216 0.246411,-0.130064 0,0.0629 -1.4023075,2.621237 -1.4544529,2.653465 -0.028816,0.01781 -0.2162433,-0.259339 -0.4165061,-0.615885 z"
       id="path192"
       transform="scale(0.9375)" />
  </g>
</svg>
